<?xml version="1.0" standalone="no"?><!DOCTYPE svg PUBLIC "-//W3C//DTD SVG 1.1//EN" "http://www.w3.org/Graphics/SVG/1.1/DTD/svg11.dtd"><svg t="1711075163846" class="icon" viewBox="0 0 1024 1024" version="1.1" xmlns="http://www.w3.org/2000/svg" p-id="1016" xmlns:xlink="http://www.w3.org/1999/xlink" width="200" height="200"><path d="M205.139375 537.0865625c104.2284375-22.381875 90.028125-146.9409375 86.908125-174.165-5.1046875-41.97-54.470625-115.33125001-121.505625-109.5290625-84.35625001 7.569375-96.680625 129.42375001-96.68062501 129.42375001-11.409375 56.325 27.31125001 176.67375001 131.27812501 154.27031249zM315.824375 753.74375001c-3.0534375 8.7478125-9.8596875 31.15125001-3.969375 50.65312499 11.626875 43.7596875 49.605 45.721875 49.605 45.72187499h54.579375v-133.41562499h-58.44c-26.265 7.831875-38.9390625 28.2721875-41.775 37.04062499z m82.7634375-425.52937501c57.568125 0 104.0971875-66.2503125 104.0971875-148.1625C502.685 98.2278125 456.1559375 32 398.5878125 32c-57.48 0-104.11875001 66.2278125-104.11875 148.0528125 0 81.9121875 46.659375 148.1625 104.11875 148.1625z m247.940625 9.7940625c76.93874999 9.9909375 126.4125-72.1171875 136.2515625-134.353125 10.0340625-62.14875001-39.615-134.3325-94.0846875-146.74406251-54.579375-12.52124999-122.7271875 74.91-128.94375 131.91-7.4175 69.675 9.9684375 139.3059375 86.776875 149.18718751z m188.518125 365.8246875s-119.04-92.1-188.540625-191.638125C552.3125 365.43124999 418.505 425.159375 373.7421875 499.8059375 329.1753125 574.431875 259.71874999 621.6378125 249.858125 634.1375c-10.0125 12.30375001-143.7984375 84.530625-114.088125 216.440625 29.6896875 131.82374999 134.0053125 129.315 134.0053125 129.315s76.873125 7.569375 166.05-12.3909375c89.22-19.785 166.0275 4.93125001 166.0275 4.93125s208.39125001 69.7828125 265.41375-64.54875c56.956875-134.375625-32.22-204.050625-32.22-204.050625zM478.49374999 903.7625H343.0053125c-58.505625-11.6709375-81.8034375-51.590625-84.748125-58.396875-2.88-6.915-19.501875-39.00374999-10.71093749-93.6046875 25.2825-81.8034375 97.378125-87.67124999 97.37812499-87.67125h72.118125v-88.6528125l61.42875001 0.9375V903.7625z m252.32437501-0.9375h-155.90625c-60.4246875-15.575625-63.2390625-58.5065625-63.2390625-58.5065625v-172.396875l63.2390625-1.025625v154.94625c3.8615625 16.5346875 24.3890625 19.5234375 24.3890625 19.5234375h64.2421875V671.9196875h67.275v230.9034375z m220.695-460.303125c0-29.775-24.7378125-119.431875-116.465625-119.431875-91.8825 0-104.16374999 84.616875-104.16375001 144.43124999 0 57.088125 4.820625 136.775625 118.95281251 134.24531251 114.17624999-2.53125001 101.6765625-129.315 101.6765625-159.24375z m0 0" fill="#3245DF" p-id="1017"></path></svg>