<?xml version="1.0" standalone="no"?><!DOCTYPE svg PUBLIC "-//W3C//DTD SVG 1.1//EN" "http://www.w3.org/Graphics/SVG/1.1/DTD/svg11.dtd"><svg t="1711075171942" class="icon" viewBox="0 0 1129 1024" version="1.1" xmlns="http://www.w3.org/2000/svg" p-id="1163" xmlns:xlink="http://www.w3.org/1999/xlink" width="220.5078125" height="200"><path d="M252.2271875 41.0525a75.43874999 75.43874999 0 0 1 64.123125 0 156.913125 156.913125 0 0 1 39.2278125 28.666875l150.8784375 132.01875h107.878125l150.8775-132.01875a158.4215625 158.4215625 0 0 1 39.2278125-28.666875A75.43874999 75.43874999 0 0 1 904.775 103.6671875a75.43874999 75.43874999 0 0 1-16.5965625 50.544375 421.704375 421.704375 0 0 1-33.193125 30.1753125 218.0184375 218.0184375 0 0 1-21.1228125 17.35125h94.2984375a159.9309375 159.9309375 0 0 1 110.8959375 49.7896875 160.6846875 160.6846875 0 0 1 50.54437501 110.895v433.7746875a305.5284375 305.5284375 0 0 1-3.7725 65.6315625 167.475 167.475 0 0 1-75.43875001 105.615 162.1940625 162.1940625 0 0 1-86.7553125 24.140625h-692.53125a319.861875 319.861875 0 0 1-67.89468749-3.7725A166.7203125 166.7203125 0 0 1 59.103125 912.3734375a161.439375 161.439375 0 0 1-25.65-86.7553125V396.370625a337.966875 337.966875 0 0 1 0-62.6146875A165.965625 165.965625 0 0 1 184.3315625 199.475h98.825625c-15.8428125-11.315625-29.4215625-24.8953125-43.755-36.965625a75.43874999 75.43874999 0 0 1-24.140625-61.86 75.43874999 75.43874999 0 0 1 36.965625-59.596875M234.875 333.7559375a75.43874999 75.43874999 0 0 0-59.596875 54.3159375 101.8425 101.8425 0 0 0 0 28.66687499v356.82656251a75.43874999 75.43874999 0 0 0 52.0528125 75.4396875 99.579375 99.579375 0 0 0 32.4384375 5.28h613.32a75.43874999 75.43874999 0 0 0 71.66625-44.50874999 105.615 105.615 0 0 0 7.5440625-49.78968751v-331.93125a126.7378125 126.7378125 0 0 0 0-36.2109375 75.43874999 75.43874999 0 0 0-49.035-51.2990625 121.456875 121.456875 0 0 0-46.771875-6.789375H270.33124999a251.96625001 251.96625001 0 0 0-35.45624999 0z m0 0" fill="#20B0E3" p-id="1164"></path><path d="M358.5959375 451.44124999a75.43874999 75.43874999 0 0 1 52.05281249 17.35031251 75.43874999 75.43874999 0 0 1 26.40375001 55.8253125v75.43875a75.43874999 75.43874999 0 0 1-15.088125 48.28125 75.43874999 75.43874999 0 0 1-123.72-9.0525 98.0709375 98.0709375 0 0 1-9.80625-51.2990625v-75.43875a75.43874999 75.43874999 0 0 1 65.6315625-63.3684375z m390.01875 0a75.43874999 75.43874999 0 0 1 80.720625 70.91250002v75.43874999a88.26374999 88.26374999 0 0 1-11.315625 49.790625 75.43874999 75.43874999 0 0 1-124.4746875 0 89.7721875 89.7721875 0 0 1-12.0703125-53.5621875V518.58125001a75.43874999 75.43874999 0 0 1 65.63156249-66.38625001z m0 0" fill="#20B0E3" p-id="1165"></path></svg>